<svg id="visual" viewBox="0 0 900 600" width="900" height="600" xmlns="http://www.w3.org/2000/svg" xmlns:xlink="http://www.w3.org/1999/xlink" version="1.1"><g stroke-width="1" stroke-linejoin="bevel"><path d="M444 295L496.3 257L440 252Z" fill="#297ea6" stroke="#297ea6"></path><path d="M444 295L506.3 289L496.3 257Z" fill="#112e42" stroke="#112e42"></path><path d="M444 295L505.3 344L506.3 289Z" fill="#00101c" stroke="#00101c"></path><path d="M439 178L398.7 224L440 252Z" fill="#297ea6" stroke="#297ea6"></path><path d="M440 252L363.7 315L444 295Z" fill="#297ea6" stroke="#297ea6"></path><path d="M496.3 257L439 178L440 252Z" fill="#00101c" stroke="#00101c"></path><path d="M378.7 358L448 368L444 295Z" fill="#00101c" stroke="#00101c"></path><path d="M444 295L448 368L505.3 344Z" fill="#19435d" stroke="#19435d"></path><path d="M578.6 233L520.3 187L496.3 257Z" fill="#081a28" stroke="#081a28"></path><path d="M496.3 257L520.3 187L439 178Z" fill="#15384f" stroke="#15384f"></path><path d="M578.6 233L496.3 257L506.3 289Z" fill="#19435d" stroke="#19435d"></path><path d="M505.3 344L562.6 311L506.3 289Z" fill="#277297" stroke="#277297"></path><path d="M398.7 224L363.7 315L440 252Z" fill="#277297" stroke="#277297"></path><path d="M562.6 311L578.6 233L506.3 289Z" fill="#277297" stroke="#277297"></path><path d="M363.7 315L378.7 358L444 295Z" fill="#297ea6" stroke="#297ea6"></path><path d="M378.7 358L445 399L448 368Z" fill="#15384f" stroke="#15384f"></path><path d="M448 368L445 399L505.3 344Z" fill="#00101c" stroke="#00101c"></path><path d="M505.3 344L587.6 365L562.6 311Z" fill="#277297" stroke="#277297"></path><path d="M398.7 224L337.4 303L363.7 315Z" fill="#081a28" stroke="#081a28"></path><path d="M363.7 315L299.4 354L378.7 358Z" fill="#00101c" stroke="#00101c"></path><path d="M439 178L367.7 165L398.7 224Z" fill="#205a7a" stroke="#205a7a"></path><path d="M398.7 224L305.4 243L337.4 303Z" fill="#112e42" stroke="#112e42"></path><path d="M398.7 104L367.7 165L439 178Z" fill="#277297" stroke="#277297"></path><path d="M578.6 233L582.6 177L520.3 187Z" fill="#15384f" stroke="#15384f"></path><path d="M520.3 187L507.3 119L439 178Z" fill="#277297" stroke="#277297"></path><path d="M557.6 406L587.6 365L505.3 344Z" fill="#112e42" stroke="#112e42"></path><path d="M562.6 311L631.9 239L578.6 233Z" fill="#1d4e6b" stroke="#1d4e6b"></path><path d="M578.6 233L631.9 239L582.6 177Z" fill="#297ea6" stroke="#297ea6"></path><path d="M299.4 354L374.7 398L378.7 358Z" fill="#1d4e6b" stroke="#1d4e6b"></path><path d="M378.7 358L374.7 398L445 399Z" fill="#205a7a" stroke="#205a7a"></path><path d="M579.6 116L507.3 119L520.3 187Z" fill="#277297" stroke="#277297"></path><path d="M508.3 440L505.3 344L445 399Z" fill="#15384f" stroke="#15384f"></path><path d="M508.3 440L557.6 406L505.3 344Z" fill="#00101c" stroke="#00101c"></path><path d="M318.4 191L305.4 243L398.7 224Z" fill="#1d4e6b" stroke="#1d4e6b"></path><path d="M337.4 303L299.4 354L363.7 315Z" fill="#205a7a" stroke="#205a7a"></path><path d="M507.3 119L437 106L439 178Z" fill="#246688" stroke="#246688"></path><path d="M651.9 319L631.9 239L562.6 311Z" fill="#00101c" stroke="#00101c"></path><path d="M311.4 100L318.4 191L367.7 165Z" fill="#246688" stroke="#246688"></path><path d="M367.7 165L318.4 191L398.7 224Z" fill="#277297" stroke="#277297"></path><path d="M458 462L508.3 440L445 399Z" fill="#277297" stroke="#277297"></path><path d="M437 106L398.7 104L439 178Z" fill="#205a7a" stroke="#205a7a"></path><path d="M274.1 292L299.4 354L337.4 303Z" fill="#246688" stroke="#246688"></path><path d="M374.7 398L458 462L445 399Z" fill="#15384f" stroke="#15384f"></path><path d="M392.7 493L458 462L374.7 398Z" fill="#19435d" stroke="#19435d"></path><path d="M658.9 376L651.9 319L587.6 365Z" fill="#112e42" stroke="#112e42"></path><path d="M587.6 365L651.9 319L562.6 311Z" fill="#081a28" stroke="#081a28"></path><path d="M655.9 123L579.6 116L582.6 177Z" fill="#19435d" stroke="#19435d"></path><path d="M582.6 177L579.6 116L520.3 187Z" fill="#1d4e6b" stroke="#1d4e6b"></path><path d="M507.3 119L502.3 57L437 106Z" fill="#19435d" stroke="#19435d"></path><path d="M256.1 251L274.1 292L305.4 243Z" fill="#277297" stroke="#277297"></path><path d="M305.4 243L274.1 292L337.4 303Z" fill="#205a7a" stroke="#205a7a"></path><path d="M458 462L522.3 465L508.3 440Z" fill="#205a7a" stroke="#205a7a"></path><path d="M508.3 440L522.3 465L557.6 406Z" fill="#19435d" stroke="#19435d"></path><path d="M648.9 437L658.9 376L587.6 365Z" fill="#0c2435" stroke="#0c2435"></path><path d="M250.1 188L305.4 243L318.4 191Z" fill="#297ea6" stroke="#297ea6"></path><path d="M250.1 188L256.1 251L305.4 243Z" fill="#081a28" stroke="#081a28"></path><path d="M274.1 292L269.1 349L299.4 354Z" fill="#205a7a" stroke="#205a7a"></path><path d="M212.9 343L269.1 349L274.1 292Z" fill="#081a28" stroke="#081a28"></path><path d="M299.4 354L300.4 406L374.7 398Z" fill="#297ea6" stroke="#297ea6"></path><path d="M711.1 250L656.9 175L631.9 239Z" fill="#00101c" stroke="#00101c"></path><path d="M631.9 239L656.9 175L582.6 177Z" fill="#19435d" stroke="#19435d"></path><path d="M269.1 349L300.4 406L299.4 354Z" fill="#297ea6" stroke="#297ea6"></path><path d="M579.6 116L502.3 57L507.3 119Z" fill="#00101c" stroke="#00101c"></path><path d="M437 106L379.7 57L398.7 104Z" fill="#277297" stroke="#277297"></path><path d="M648.9 437L587.6 365L557.6 406Z" fill="#15384f" stroke="#15384f"></path><path d="M651.9 319L686.1 304L631.9 239Z" fill="#297ea6" stroke="#297ea6"></path><path d="M658.9 376L686.1 304L651.9 319Z" fill="#1d4e6b" stroke="#1d4e6b"></path><path d="M379.7 57L311.4 100L398.7 104Z" fill="#277297" stroke="#277297"></path><path d="M398.7 104L311.4 100L367.7 165Z" fill="#112e42" stroke="#112e42"></path><path d="M453 39L379.7 57L437 106Z" fill="#081a28" stroke="#081a28"></path><path d="M267.1 140L250.1 188L318.4 191Z" fill="#19435d" stroke="#19435d"></path><path d="M502.3 57L453 39L437 106Z" fill="#00101c" stroke="#00101c"></path><path d="M325.4 460L392.7 493L374.7 398Z" fill="#0c2435" stroke="#0c2435"></path><path d="M458 462L469 531L522.3 465Z" fill="#205a7a" stroke="#205a7a"></path><path d="M258.1 439L325.4 460L300.4 406Z" fill="#246688" stroke="#246688"></path><path d="M300.4 406L325.4 460L374.7 398Z" fill="#081a28" stroke="#081a28"></path><path d="M311.4 100L267.1 140L318.4 191Z" fill="#15384f" stroke="#15384f"></path><path d="M706.1 120L655.9 123L656.9 175Z" fill="#277297" stroke="#277297"></path><path d="M656.9 175L655.9 123L582.6 177Z" fill="#246688" stroke="#246688"></path><path d="M579.6 116L574.6 43L502.3 57Z" fill="#112e42" stroke="#112e42"></path><path d="M504.3 544L585.6 483L522.3 465Z" fill="#112e42" stroke="#112e42"></path><path d="M522.3 465L585.6 483L557.6 406Z" fill="#15384f" stroke="#15384f"></path><path d="M772.4 259L711.1 250L784.4 284Z" fill="#112e42" stroke="#112e42"></path><path d="M686.1 304L711.1 250L631.9 239Z" fill="#297ea6" stroke="#297ea6"></path><path d="M585.6 483L648.9 437L557.6 406Z" fill="#246688" stroke="#246688"></path><path d="M658.9 376L716.1 380L686.1 304Z" fill="#15384f" stroke="#15384f"></path><path d="M637.9 80L574.6 43L579.6 116Z" fill="#112e42" stroke="#112e42"></path><path d="M502.3 57L459 0L453 39Z" fill="#297ea6" stroke="#297ea6"></path><path d="M655.9 123L637.9 80L579.6 116Z" fill="#246688" stroke="#246688"></path><path d="M706.1 120L637.9 80L655.9 123Z" fill="#19435d" stroke="#19435d"></path><path d="M379.7 57L323.4 56L311.4 100Z" fill="#1d4e6b" stroke="#1d4e6b"></path><path d="M197.9 72L199.9 132L267.1 140Z" fill="#112e42" stroke="#112e42"></path><path d="M341.4 0L323.4 56L379.7 57Z" fill="#15384f" stroke="#15384f"></path><path d="M399.7 544L469 531L392.7 493Z" fill="#1d4e6b" stroke="#1d4e6b"></path><path d="M392.7 493L469 531L458 462Z" fill="#205a7a" stroke="#205a7a"></path><path d="M595.6 522L652.9 458L585.6 483Z" fill="#0c2435" stroke="#0c2435"></path><path d="M585.6 483L652.9 458L648.9 437Z" fill="#277297" stroke="#277297"></path><path d="M696.1 420L716.1 380L658.9 376Z" fill="#277297" stroke="#277297"></path><path d="M186.9 289L212.9 343L274.1 292Z" fill="#15384f" stroke="#15384f"></path><path d="M269.1 349L258.1 439L300.4 406Z" fill="#0c2435" stroke="#0c2435"></path><path d="M186.9 289L274.1 292L256.1 251Z" fill="#081a28" stroke="#081a28"></path><path d="M212.9 343L258.1 439L269.1 349Z" fill="#081a28" stroke="#081a28"></path><path d="M299.4 559L399.7 544L392.7 493Z" fill="#1d4e6b" stroke="#1d4e6b"></path><path d="M515.3 0L459 0L502.3 57Z" fill="#1d4e6b" stroke="#1d4e6b"></path><path d="M453 39L405.7 0L379.7 57Z" fill="#081a28" stroke="#081a28"></path><path d="M711.1 250L724.1 184L656.9 175Z" fill="#081a28" stroke="#081a28"></path><path d="M696.1 420L658.9 376L648.9 437Z" fill="#112e42" stroke="#112e42"></path><path d="M711.1 250L759.4 185L724.1 184Z" fill="#0c2435" stroke="#0c2435"></path><path d="M652.9 458L696.1 420L648.9 437Z" fill="#15384f" stroke="#15384f"></path><path d="M469 531L504.3 544L522.3 465Z" fill="#081a28" stroke="#081a28"></path><path d="M574.6 43L515.3 0L502.3 57Z" fill="#205a7a" stroke="#205a7a"></path><path d="M576.6 0L515.3 0L574.6 43Z" fill="#246688" stroke="#246688"></path><path d="M459 0L405.7 0L453 39Z" fill="#205a7a" stroke="#205a7a"></path><path d="M181.9 233L186.9 289L256.1 251Z" fill="#0c2435" stroke="#0c2435"></path><path d="M209.9 466L250.1 463L258.1 439Z" fill="#246688" stroke="#246688"></path><path d="M181.9 233L256.1 251L250.1 188Z" fill="#205a7a" stroke="#205a7a"></path><path d="M299.4 559L392.7 493L325.4 460Z" fill="#246688" stroke="#246688"></path><path d="M469 531L468 600L504.3 544Z" fill="#112e42" stroke="#112e42"></path><path d="M504.3 544L595.6 522L585.6 483Z" fill="#00101c" stroke="#00101c"></path><path d="M652.9 458L709.1 487L696.1 420Z" fill="#297ea6" stroke="#297ea6"></path><path d="M724.1 184L706.1 120L656.9 175Z" fill="#19435d" stroke="#19435d"></path><path d="M641.9 0L576.6 0L574.6 43Z" fill="#297ea6" stroke="#297ea6"></path><path d="M199.9 132L250.1 188L267.1 140Z" fill="#112e42" stroke="#112e42"></path><path d="M177.9 177L181.9 233L250.1 188Z" fill="#1d4e6b" stroke="#1d4e6b"></path><path d="M179.9 416L258.1 439L212.9 343Z" fill="#15384f" stroke="#15384f"></path><path d="M258.1 439L250.1 463L325.4 460Z" fill="#00101c" stroke="#00101c"></path><path d="M641.9 0L574.6 43L637.9 80Z" fill="#00101c" stroke="#00101c"></path><path d="M405.7 0L341.4 0L379.7 57Z" fill="#00101c" stroke="#00101c"></path><path d="M270.1 41L267.1 140L311.4 100Z" fill="#081a28" stroke="#081a28"></path><path d="M270.1 41L311.4 100L323.4 56Z" fill="#205a7a" stroke="#205a7a"></path><path d="M341.4 0L270.1 41L323.4 56Z" fill="#205a7a" stroke="#205a7a"></path><path d="M199.9 132L177.9 177L250.1 188Z" fill="#1d4e6b" stroke="#1d4e6b"></path><path d="M724.1 184L759.4 185L706.1 120Z" fill="#081a28" stroke="#081a28"></path><path d="M772.4 259L759.4 185L711.1 250Z" fill="#246688" stroke="#246688"></path><path d="M784.4 284L711.1 250L686.1 304Z" fill="#205a7a" stroke="#205a7a"></path><path d="M716.1 380L784.4 284L686.1 304Z" fill="#15384f" stroke="#15384f"></path><path d="M815.7 129L781.4 120L759.4 185Z" fill="#0c2435" stroke="#0c2435"></path><path d="M778.4 374L784.4 284L716.1 380Z" fill="#15384f" stroke="#15384f"></path><path d="M147.6 342L179.9 416L212.9 343Z" fill="#00101c" stroke="#00101c"></path><path d="M147.6 342L212.9 343L186.9 289Z" fill="#081a28" stroke="#081a28"></path><path d="M147.6 342L186.9 289L114.6 282Z" fill="#246688" stroke="#246688"></path><path d="M179.9 416L209.9 466L258.1 439Z" fill="#0c2435" stroke="#0c2435"></path><path d="M250.1 463L299.4 559L325.4 460Z" fill="#0c2435" stroke="#0c2435"></path><path d="M698.1 44L641.9 0L637.9 80Z" fill="#15384f" stroke="#15384f"></path><path d="M698.1 44L637.9 80L706.1 120Z" fill="#205a7a" stroke="#205a7a"></path><path d="M752.4 60L698.1 44L706.1 120Z" fill="#081a28" stroke="#081a28"></path><path d="M626.9 558L709.1 487L652.9 458Z" fill="#1d4e6b" stroke="#1d4e6b"></path><path d="M769.4 432L778.4 374L716.1 380Z" fill="#00101c" stroke="#00101c"></path><path d="M140.6 234L186.9 289L181.9 233Z" fill="#0c2435" stroke="#0c2435"></path><path d="M146.6 184L181.9 233L177.9 177Z" fill="#00101c" stroke="#00101c"></path><path d="M146.6 184L140.6 234L181.9 233Z" fill="#246688" stroke="#246688"></path><path d="M769.4 432L716.1 380L696.1 420Z" fill="#205a7a" stroke="#205a7a"></path><path d="M595.6 522L626.9 558L652.9 458Z" fill="#205a7a" stroke="#205a7a"></path><path d="M558.6 600L626.9 558L595.6 522Z" fill="#19435d" stroke="#19435d"></path><path d="M558.6 600L595.6 522L504.3 544Z" fill="#15384f" stroke="#15384f"></path><path d="M406.7 600L468 600L399.7 544Z" fill="#1d4e6b" stroke="#1d4e6b"></path><path d="M399.7 544L468 600L469 531Z" fill="#246688" stroke="#246688"></path><path d="M141.6 108L146.6 184L177.9 177Z" fill="#081a28" stroke="#081a28"></path><path d="M141.6 108L177.9 177L199.9 132Z" fill="#19435d" stroke="#19435d"></path><path d="M249.1 547L299.4 559L250.1 463Z" fill="#0c2435" stroke="#0c2435"></path><path d="M320.4 600L406.7 600L399.7 544Z" fill="#0c2435" stroke="#0c2435"></path><path d="M468 600L528.3 600L504.3 544Z" fill="#15384f" stroke="#15384f"></path><path d="M193.9 0L197.9 72L270.1 41Z" fill="#297ea6" stroke="#297ea6"></path><path d="M270.1 41L197.9 72L267.1 140Z" fill="#19435d" stroke="#19435d"></path><path d="M341.4 0L261.1 0L270.1 41Z" fill="#081a28" stroke="#081a28"></path><path d="M528.3 600L558.6 600L504.3 544Z" fill="#297ea6" stroke="#297ea6"></path><path d="M709.1 487L769.4 432L696.1 420Z" fill="#1d4e6b" stroke="#1d4e6b"></path><path d="M816.7 243L759.4 185L772.4 259Z" fill="#081a28" stroke="#081a28"></path><path d="M759.4 185L781.4 120L706.1 120Z" fill="#19435d" stroke="#19435d"></path><path d="M778.4 374L815.7 297L784.4 284Z" fill="#00101c" stroke="#00101c"></path><path d="M784.4 284L816.7 243L772.4 259Z" fill="#1d4e6b" stroke="#1d4e6b"></path><path d="M850.7 379L815.7 297L778.4 374Z" fill="#19435d" stroke="#19435d"></path><path d="M815.7 297L816.7 243L784.4 284Z" fill="#081a28" stroke="#081a28"></path><path d="M208.9 554L249.1 547L209.9 466Z" fill="#112e42" stroke="#112e42"></path><path d="M209.9 466L249.1 547L250.1 463Z" fill="#1d4e6b" stroke="#1d4e6b"></path><path d="M299.4 559L320.4 600L399.7 544Z" fill="#112e42" stroke="#112e42"></path><path d="M140.6 234L114.6 282L186.9 289Z" fill="#277297" stroke="#277297"></path><path d="M147.6 342L148.6 423L179.9 416Z" fill="#0c2435" stroke="#0c2435"></path><path d="M75.3 311L114.6 282L62.3 256Z" fill="#1d4e6b" stroke="#1d4e6b"></path><path d="M69.3 380L148.6 423L147.6 342Z" fill="#1d4e6b" stroke="#1d4e6b"></path><path d="M179.9 416L148.6 423L209.9 466Z" fill="#277297" stroke="#277297"></path><path d="M626.9 558L720.1 518L709.1 487Z" fill="#246688" stroke="#246688"></path><path d="M709.1 487L771.4 481L769.4 432Z" fill="#297ea6" stroke="#297ea6"></path><path d="M687.1 600L720.1 518L626.9 558Z" fill="#15384f" stroke="#15384f"></path><path d="M781.4 120L752.4 60L706.1 120Z" fill="#00101c" stroke="#00101c"></path><path d="M698.1 44L715.1 0L641.9 0Z" fill="#112e42" stroke="#112e42"></path><path d="M243.1 600L320.4 600L299.4 559Z" fill="#246688" stroke="#246688"></path><path d="M138.6 48L141.6 108L197.9 72Z" fill="#277297" stroke="#277297"></path><path d="M197.9 72L141.6 108L199.9 132Z" fill="#19435d" stroke="#19435d"></path><path d="M62.3 256L114.6 282L140.6 234Z" fill="#205a7a" stroke="#205a7a"></path><path d="M752.4 60L715.1 0L698.1 44Z" fill="#15384f" stroke="#15384f"></path><path d="M760.4 519L771.4 481L709.1 487Z" fill="#1d4e6b" stroke="#1d4e6b"></path><path d="M845.7 406L850.7 379L778.4 374Z" fill="#00101c" stroke="#00101c"></path><path d="M558.6 600L637.9 600L626.9 558Z" fill="#277297" stroke="#277297"></path><path d="M720.1 518L760.4 519L709.1 487Z" fill="#0c2435" stroke="#0c2435"></path><path d="M781.4 120L816.7 71L752.4 60Z" fill="#00101c" stroke="#00101c"></path><path d="M752.4 60L770.4 0L715.1 0Z" fill="#19435d" stroke="#19435d"></path><path d="M853.7 175L815.7 129L759.4 185Z" fill="#112e42" stroke="#112e42"></path><path d="M142.6 488L208.9 554L209.9 466Z" fill="#1d4e6b" stroke="#1d4e6b"></path><path d="M249.1 547L243.1 600L299.4 559Z" fill="#15384f" stroke="#15384f"></path><path d="M765.4 600L760.4 519L720.1 518Z" fill="#15384f" stroke="#15384f"></path><path d="M261.1 0L193.9 0L270.1 41Z" fill="#00101c" stroke="#00101c"></path><path d="M77.3 428L142.6 488L148.6 423Z" fill="#081a28" stroke="#081a28"></path><path d="M148.6 423L142.6 488L209.9 466Z" fill="#00101c" stroke="#00101c"></path><path d="M62.3 256L140.6 234L51.3 161Z" fill="#19435d" stroke="#19435d"></path><path d="M114.6 282L75.3 311L147.6 342Z" fill="#00101c" stroke="#00101c"></path><path d="M637.9 600L687.1 600L626.9 558Z" fill="#081a28" stroke="#081a28"></path><path d="M193.9 0L138.6 48L197.9 72Z" fill="#15384f" stroke="#15384f"></path><path d="M51.3 161L140.6 234L146.6 184Z" fill="#15384f" stroke="#15384f"></path><path d="M182.9 600L243.1 600L208.9 554Z" fill="#00101c" stroke="#00101c"></path><path d="M208.9 554L243.1 600L249.1 547Z" fill="#15384f" stroke="#15384f"></path><path d="M816.7 243L853.7 175L759.4 185Z" fill="#297ea6" stroke="#297ea6"></path><path d="M815.7 129L816.7 71L781.4 120Z" fill="#0c2435" stroke="#0c2435"></path><path d="M900 229L853.7 175L816.7 243Z" fill="#0c2435" stroke="#0c2435"></path><path d="M900 229L816.7 243L815.7 297Z" fill="#00101c" stroke="#00101c"></path><path d="M845.7 406L769.4 432L824.7 477Z" fill="#00101c" stroke="#00101c"></path><path d="M845.7 406L778.4 374L769.4 432Z" fill="#112e42" stroke="#112e42"></path><path d="M824.7 477L769.4 432L771.4 481Z" fill="#15384f" stroke="#15384f"></path><path d="M900 107L816.7 71L815.7 129Z" fill="#112e42" stroke="#112e42"></path><path d="M51.3 161L146.6 184L141.6 108Z" fill="#1d4e6b" stroke="#1d4e6b"></path><path d="M816.7 71L770.4 0L752.4 60Z" fill="#246688" stroke="#246688"></path><path d="M0 347L69.3 380L75.3 311Z" fill="#246688" stroke="#246688"></path><path d="M75.3 311L69.3 380L147.6 342Z" fill="#205a7a" stroke="#205a7a"></path><path d="M816.7 524L771.4 481L760.4 519Z" fill="#00101c" stroke="#00101c"></path><path d="M816.7 524L824.7 477L771.4 481Z" fill="#0c2435" stroke="#0c2435"></path><path d="M193.9 0L148.6 0L138.6 48Z" fill="#1d4e6b" stroke="#1d4e6b"></path><path d="M55.3 121L51.3 161L141.6 108Z" fill="#15384f" stroke="#15384f"></path><path d="M69.3 380L77.3 428L148.6 423Z" fill="#205a7a" stroke="#205a7a"></path><path d="M148.6 600L182.9 600L208.9 554Z" fill="#0c2435" stroke="#0c2435"></path><path d="M55.3 121L141.6 108L42.3 72Z" fill="#297ea6" stroke="#297ea6"></path><path d="M0 430L77.3 428L69.3 380Z" fill="#00101c" stroke="#00101c"></path><path d="M765.4 600L816.7 524L760.4 519Z" fill="#112e42" stroke="#112e42"></path><path d="M900 339L850.7 379L900 407Z" fill="#00101c" stroke="#00101c"></path><path d="M148.6 600L208.9 554L112.6 561Z" fill="#246688" stroke="#246688"></path><path d="M815.7 297L850.7 379L900 339Z" fill="#081a28" stroke="#081a28"></path><path d="M900 315L815.7 297L900 339Z" fill="#205a7a" stroke="#205a7a"></path><path d="M900 315L900 229L815.7 297Z" fill="#0c2435" stroke="#0c2435"></path><path d="M853.7 175L900 107L815.7 129Z" fill="#1d4e6b" stroke="#1d4e6b"></path><path d="M850.7 379L845.7 406L900 407Z" fill="#15384f" stroke="#15384f"></path><path d="M42.3 72L141.6 108L138.6 48Z" fill="#15384f" stroke="#15384f"></path><path d="M900 407L845.7 406L900 468Z" fill="#205a7a" stroke="#205a7a"></path><path d="M687.1 600L765.4 600L720.1 518Z" fill="#0c2435" stroke="#0c2435"></path><path d="M900 229L900 169L853.7 175Z" fill="#00101c" stroke="#00101c"></path><path d="M816.7 71L832.7 0L770.4 0Z" fill="#112e42" stroke="#112e42"></path><path d="M77.3 428L67.3 471L142.6 488Z" fill="#1d4e6b" stroke="#1d4e6b"></path><path d="M0 430L67.3 471L77.3 428Z" fill="#0c2435" stroke="#0c2435"></path><path d="M0 316L75.3 311L62.3 256Z" fill="#1d4e6b" stroke="#1d4e6b"></path><path d="M900 468L824.7 477L900 519Z" fill="#1d4e6b" stroke="#1d4e6b"></path><path d="M900 468L845.7 406L824.7 477Z" fill="#0c2435" stroke="#0c2435"></path><path d="M900 55L832.7 0L816.7 71Z" fill="#297ea6" stroke="#297ea6"></path><path d="M112.6 561L208.9 554L142.6 488Z" fill="#081a28" stroke="#081a28"></path><path d="M76.3 546L112.6 561L142.6 488Z" fill="#0c2435" stroke="#0c2435"></path><path d="M900 169L900 107L853.7 175Z" fill="#277297" stroke="#277297"></path><path d="M0 181L62.3 256L51.3 161Z" fill="#0c2435" stroke="#0c2435"></path><path d="M0 181L0 242L62.3 256Z" fill="#112e42" stroke="#112e42"></path><path d="M42.3 0L42.3 72L138.6 48Z" fill="#205a7a" stroke="#205a7a"></path><path d="M0 136L0 181L51.3 161Z" fill="#15384f" stroke="#15384f"></path><path d="M0 242L0 316L62.3 256Z" fill="#0c2435" stroke="#0c2435"></path><path d="M0 316L0 347L75.3 311Z" fill="#19435d" stroke="#19435d"></path><path d="M67.3 471L76.3 546L142.6 488Z" fill="#081a28" stroke="#081a28"></path><path d="M0 136L51.3 161L55.3 121Z" fill="#00101c" stroke="#00101c"></path><path d="M900 519L824.7 477L816.7 524Z" fill="#205a7a" stroke="#205a7a"></path><path d="M0 494L76.3 546L67.3 471Z" fill="#205a7a" stroke="#205a7a"></path><path d="M112.6 561L80.3 600L148.6 600Z" fill="#081a28" stroke="#081a28"></path><path d="M900 107L900 55L816.7 71Z" fill="#297ea6" stroke="#297ea6"></path><path d="M42.3 72L0 136L55.3 121Z" fill="#297ea6" stroke="#297ea6"></path><path d="M0 347L0 430L69.3 380Z" fill="#112e42" stroke="#112e42"></path><path d="M846.7 600L900 519L816.7 524Z" fill="#0c2435" stroke="#0c2435"></path><path d="M765.4 600L846.7 600L816.7 524Z" fill="#19435d" stroke="#19435d"></path><path d="M148.6 0L42.3 0L138.6 48Z" fill="#15384f" stroke="#15384f"></path><path d="M42.3 72L0 69L0 136Z" fill="#081a28" stroke="#081a28"></path><path d="M0 600L80.3 600L76.3 546Z" fill="#00101c" stroke="#00101c"></path><path d="M76.3 546L80.3 600L112.6 561Z" fill="#246688" stroke="#246688"></path><path d="M42.3 0L0 69L42.3 72Z" fill="#0c2435" stroke="#0c2435"></path><path d="M900 55L900 0L832.7 0Z" fill="#1d4e6b" stroke="#1d4e6b"></path><path d="M0 430L0 494L67.3 471Z" fill="#15384f" stroke="#15384f"></path><path d="M0 494L0 532L76.3 546Z" fill="#205a7a" stroke="#205a7a"></path><path d="M42.3 0L0 0L0 69Z" fill="#1d4e6b" stroke="#1d4e6b"></path><path d="M846.7 600L900 600L900 519Z" fill="#00101c" stroke="#00101c"></path><path d="M0 532L0 600L76.3 546Z" fill="#1d4e6b" stroke="#1d4e6b"></path></g></svg>